<?xml version="1.0" encoding="UTF-8"?>
<svg version="1.1" xmlns="http://www.w3.org/2000/svg" width="1024" height="1024">
<path d="M0 0 C337.92 0 675.84 0 1024 0 C1024 337.92 1024 675.84 1024 1024 C686.08 1024 348.16 1024 0 1024 C0 686.08 0 348.16 0 0 Z " fill="#FEFEFE" transform="translate(0,0)"/>
<path d="M0 0 C6.47289273 4.78186124 11.08790421 9.45502454 14 17 C14 17.66 14 18.32 14 19 C52.61 19 91.22 19 131 19 C131.66 17.02 132.32 15.04 133 13 C137.77916134 6.21029493 143.62860507 0.60427429 152 -1 C161.50568757 -1.78282133 168.88315579 -1.41649332 177 4 C178.36125 4.8353125 178.36125 4.8353125 179.75 5.6875 C186.47678383 12.60113894 189.89340368 20.80284007 190.3125 30.375 C190.05385817 39.21446505 187.09746849 46.59972269 181 53 C173.78682974 59.58593806 166.61430106 62.66950999 156.80078125 62.34375 C148.32905808 61.30398481 141.68281641 57.26243848 136 51 C131 44.27250608 131 44.27250608 131 41 C114.5 41 98 41 81 41 C81 113.93 81 186.86 81 262 C82.65 262.66 84.3 263.32 86 264 C95.24386912 270.63527727 99.86582045 277.8658695 102 289 C102.91383656 297.68144731 99.87050876 305.87103995 94.8671875 312.890625 C88.99480917 319.52469257 81.84878934 323.51516615 73.03125 324.24609375 C63.4043197 324.61722541 56.16507978 322.8816146 48.6875 316.6875 C41.78208413 310.15874318 37.87485709 303.79537541 37.51757812 294.03662109 C37.43648716 284.06468541 39.1279085 276.49076978 45.96875 268.78125 C50.00596141 264.99248237 52.4865814 263.8378062 58 262 C58 189.07 58 116.14 58 41 C43.48 41 28.96 41 14 41 C13.34 42.98 12.68 44.96 12 47 C4.42765905 57.2075156 -3.58315703 62.39294058 -16.1015625 64.32421875 C-24.14477079 64.80416328 -32.89653592 61.0184038 -39 56 C-46.46955367 49.14438225 -50.14758364 42.00579699 -51.375 31.91796875 C-51.76104194 22.52026034 -48.88337053 14.35421316 -43 7 C-31.92623379 -4.71758983 -14.33723502 -8.89815085 0 0 Z " fill="#132D3E" transform="translate(174,326)"/>
<path d="M0 0 C7.26 0 14.52 0 22 0 C22 71.61 22 143.22 22 217 C14.41 217 6.82 217 -1 217 C-1.02347495 196.68006046 -1.04115708 176.36012494 -1.05181217 156.04017448 C-1.05689812 146.59839276 -1.06381438 137.15661987 -1.07543945 127.71484375 C-1.12686282 85.1297546 -1.04429935 42.57491898 0 0 Z " fill="#143143" transform="translate(322,412)"/>
<path d="M0 0 C10.51350935 7.35062166 15.13991722 18.39099235 17.57421875 30.5625 C17.57421875 34.8525 17.57421875 39.1425 17.57421875 43.5625 C-2.22578125 43.5625 -22.02578125 43.5625 -42.42578125 43.5625 C-38.01873034 55.17405809 -38.01873034 55.17405809 -29.6875 61.65234375 C-23.73977742 64.04581415 -15.35262588 63.56545695 -9.359375 61.51171875 C-6.26419989 59.94798647 -3.35352746 58.28075513 -0.609375 56.15625 C1.57421875 55.5625 1.57421875 55.5625 5.02734375 57.1171875 C6.30271798 57.87444095 7.56815463 58.64863046 8.82421875 59.4375 C9.47390625 59.82808594 10.12359375 60.21867187 10.79296875 60.62109375 C12.39541927 61.58727715 13.98602168 62.57306172 15.57421875 63.5625 C7.90038931 73.40074287 -1.17247043 78.47092278 -13.42578125 80.5625 C-26.07207306 81.50463062 -37.17652221 78.63698133 -47.55078125 71.375 C-55.57048779 64.24879337 -60.93867779 53.06576668 -61.62890625 42.43359375 C-61.83252822 27.5182841 -58.51421572 15.43921715 -48.3046875 4.34765625 C-35.22026237 -8.08390775 -15.19621199 -9.00516266 0 0 Z " fill="#142F3F" transform="translate(558.42578125,400.4375)"/>
<path d="M0 0 C6.6 0 13.2 0 20 0 C20.06058594 2.45695312 20.12117187 4.91390625 20.18359375 7.4453125 C20.24549197 9.83824407 20.30883443 12.23113337 20.37231445 14.62402344 C20.41549049 16.28056031 20.45717697 17.93713672 20.49731445 19.59375 C20.5554393 21.9818918 20.61900948 24.3698377 20.68359375 26.7578125 C20.70030624 27.49242706 20.71701874 28.22704163 20.73423767 28.98391724 C20.85070592 33.0730966 21.22369622 36.98311143 22 41 C22.50789062 40.59007812 23.01578125 40.18015625 23.5390625 39.7578125 C24.22742188 39.21898437 24.91578125 38.68015625 25.625 38.125 C26.29789063 37.59132813 26.97078125 37.05765625 27.6640625 36.5078125 C34.8385884 31.87676401 43.75251793 31.84918855 52 33 C59.11902261 35.16113186 64.55425541 38.54537695 68.81640625 44.6796875 C73.10990695 53.09664928 73.40349546 59.95785777 73.29296875 69.34375 C73.28736365 70.72236669 73.28309788 72.10098942 73.28010559 73.47961426 C73.26872857 77.08330189 73.23932457 80.68661862 73.20599365 84.29016113 C73.17513727 87.97724391 73.16156722 91.66438744 73.14648438 95.3515625 C73.11444653 102.56789587 73.06173875 109.78384841 73 117 C66.73 117 60.46 117 54 117 C53.98541748 115.33501465 53.97083496 113.6700293 53.95581055 111.95458984 C53.89779051 105.77077883 53.82055675 99.58733052 53.73754883 93.40380859 C53.70267998 90.72863786 53.67628119 88.05376362 53.65356445 85.37841797 C53.61998733 81.53062212 53.56766721 77.68346511 53.51171875 73.8359375 C53.50532883 72.64197357 53.4989389 71.44800964 53.49235535 70.21786499 C53.38283696 62.18528123 53.38283696 62.18528123 50 55 C46.4772124 51.70448902 43.55127182 51.18615262 38.875 50.625 C32.57849445 51.23433925 27.18296246 53.60084005 22.89233398 58.31640625 C19.75808141 63.20630762 20.39650288 69.00983645 20.390625 74.6171875 C20.37408875 75.82948029 20.35755249 77.04177307 20.34051514 78.290802 C20.29203814 82.1522529 20.2706636 86.01330993 20.25 89.875 C20.22184027 92.49741564 20.19191285 95.11981295 20.16015625 97.7421875 C20.08627841 104.16142592 20.03670125 110.58044572 20 117 C13.4 117 6.8 117 0 117 C0 78.39 0 39.78 0 0 Z " fill="#133041" transform="translate(674,362)"/>
<path d="M0 0 C7.04730248 5.9214886 9.64766022 13.23495639 10.5 22.1875 C10.69331626 26.49750425 10.75576361 30.80742659 10.81640625 35.12109375 C10.83718735 36.35416763 10.85796844 37.58724152 10.87937927 38.85768127 C10.94454023 42.78006648 11.00360385 46.70251622 11.0625 50.625 C11.10522252 53.29103101 11.14933232 55.95703683 11.19335938 58.62304688 C11.30018726 65.14446583 11.40154836 71.66594943 11.5 78.1875 C5.56 78.1875 -0.38 78.1875 -6.5 78.1875 C-6.995 73.7325 -6.995 73.7325 -7.5 69.1875 C-8.17482422 69.87585938 -8.17482422 69.87585938 -8.86328125 70.578125 C-15.36206339 76.77736408 -22.4330354 80.24134777 -31.5 80.6875 C-39.62612874 80.29992629 -47.211295 77.37548369 -53.1328125 71.765625 C-57.66954487 66.52893964 -58.88407975 60.40739062 -58.7734375 53.69140625 C-58.09446687 47.47397515 -55.8482788 41.99088881 -51.1875 37.75 C-38.904499 28.57007293 -22.15495183 29.7427225 -7.5 29.1875 C-7.74970682 22.86991733 -8.08956978 18.08797802 -12.5 13.1875 C-17.73709227 10.60896561 -22.77366699 10.52223484 -28.5 11.1875 C-33.956366 13.66766636 -35.91542577 17.01835154 -38.5 22.1875 C-44.15020618 21.58641424 -49.16164461 20.11221317 -54.5 18.1875 C-54.14863178 11.33581979 -50.43710803 6.09316148 -45.67578125 1.3828125 C-33.43797759 -8.59608623 -12.92765955 -9.10432216 0 0 Z " fill="#143142" transform="translate(608.5,535.8125)"/>
<path d="M0 0 C6.55314464 5.29339041 9.38579976 11.23472079 10.55078125 19.45703125 C10.69622336 22.09816309 10.80484428 24.72058616 10.8671875 27.36328125 C10.89842712 28.49471306 10.89842712 28.49471306 10.93029785 29.64900208 C10.99590246 32.08491668 11.05493499 34.52093282 11.11328125 36.95703125 C11.15614259 38.62784898 11.19903005 40.29866603 11.24194336 41.96948242 C11.54352283 54.13555849 11.63833678 66.28681314 11.55078125 78.45703125 C5.61078125 78.45703125 -0.32921875 78.45703125 -6.44921875 78.45703125 C-6.94421875 74.49703125 -6.94421875 74.49703125 -7.44921875 70.45703125 C-7.87332031 70.85535156 -8.29742188 71.25367188 -8.734375 71.6640625 C-16.19423829 78.40253242 -23.71711697 80.87977793 -33.765625 80.73046875 C-41.98405207 79.89307443 -49.11151235 75.6946281 -54.44921875 69.45703125 C-58.56380325 62.74475977 -58.16366608 56.10243886 -57.44921875 48.45703125 C-56.0385923 42.68144749 -52.69543132 39.04967989 -47.79760742 35.79980469 C-40.23710927 31.47682518 -31.65768196 30.84605825 -23.13671875 30.26953125 C-21.55020508 30.14674805 -21.55020508 30.14674805 -19.93164062 30.02148438 C-15.42539927 29.68316089 -10.96984945 29.41366666 -6.44921875 29.45703125 C-6.67856284 27.53778338 -6.93356218 25.62159065 -7.19921875 23.70703125 C-7.3384375 22.6396875 -7.47765625 21.57234375 -7.62109375 20.47265625 C-8.7747801 16.27149651 -10.88702582 14.37596827 -14.57421875 12.20703125 C-20.17574063 10.74576467 -26.03516327 10.36360468 -31.32421875 13.01953125 C-35.0450545 15.92178313 -36.42482001 18.24628186 -38.44921875 22.45703125 C-43.84717864 21.30644569 -49.15909208 20.03281366 -54.44921875 18.45703125 C-52.04532633 9.83819744 -49.30768752 4.00288644 -41.57421875 -0.85546875 C-28.82616176 -7.86503088 -12.54012239 -7.9000771 0 0 Z " fill="#133041" transform="translate(689.44921875,535.54296875)"/>
<path d="M0 0 C7.25468755 5.93565345 11.0834805 11.96420655 12.08480835 21.40750122 C12.28649512 25.09679275 12.39940071 28.77875275 12.48046875 32.47265625 C12.51983287 33.82746324 12.5604064 35.18223558 12.60212708 36.53697205 C12.70781423 40.07281804 12.79725317 43.60888821 12.88311768 47.14526367 C12.97396622 50.7657464 13.08044735 54.38576728 13.18554688 58.00585938 C13.38885286 65.08687972 13.57351872 72.16825285 13.75 79.25 C7.48 79.25 1.21 79.25 -5.25 79.25 C-5.745 75.29 -5.745 75.29 -6.25 71.25 C-6.67410156 71.64832031 -7.09820313 72.04664063 -7.53515625 72.45703125 C-8.12167969 72.98683594 -8.70820312 73.51664063 -9.3125 74.0625 C-9.88097656 74.58457031 -10.44945312 75.10664062 -11.03515625 75.64453125 C-16.82974248 79.84483979 -22.07317839 80.80851594 -29.0625 80.75 C-29.85495117 80.74427979 -30.64740234 80.73855957 -31.46386719 80.73266602 C-38.99644422 80.50354113 -44.45708568 78.67637218 -50.109375 73.5703125 C-55.49800648 67.79677877 -56.78781409 61.908703 -56.62890625 54.1328125 C-55.80020282 47.82783179 -52.85578926 43.00872157 -48.625 38.375 C-40.26049211 33.10845799 -31.60584346 31.58458133 -21.875 31 C-20.82183594 30.92265625 -19.76867187 30.8453125 -18.68359375 30.765625 C-14.19566212 30.44708993 -9.75042755 30.2114394 -5.25 30.25 C-5.47934409 28.33075213 -5.73434343 26.4145594 -6 24.5 C-6.13921875 23.43265625 -6.2784375 22.3653125 -6.421875 21.265625 C-7.5711638 17.08047901 -9.58227945 15.31870256 -13.1640625 13.0234375 C-17.39630901 11.45417756 -21.82067541 11.74140023 -26.25 12.25 C-31.59135391 14.72284903 -34.1111814 18.4494539 -37.25 23.25 C-39.37570312 22.77396226 -41.50054427 22.29407402 -43.625 21.8125 C-44.80835938 21.54566406 -45.99171875 21.27882813 -47.2109375 21.00390625 C-50.25 20.25 -50.25 20.25 -52.25 19.25 C-51.89908272 12.40711299 -48.19643346 7.10977365 -43.390625 2.4453125 C-30.98841829 -7.52606169 -13.72077463 -7.38810941 0 0 Z " fill="#133041" transform="translate(904.25,534.75)"/>
<path d="M0 0 C29.37 0 58.74 0 89 0 C89 6.27 89 12.54 89 19 C77.78 19 66.56 19 55 19 C55 51.34 55 83.68 55 117 C48.07 117 41.14 117 34 117 C33.505 68.49 33.505 68.49 33 19 C22.11 19 11.22 19 0 19 C0 12.73 0 6.46 0 0 Z " fill="#163344" transform="translate(421,362)"/>
<path d="M0 0 C6.6 0 13.2 0 20 0 C36.34042553 42.44680851 36.34042553 42.44680851 43 60 C44.7883694 57.31744589 45.70714518 55.29431892 46.73999023 52.28833008 C47.2357682 50.855877 47.2357682 50.855877 47.74156189 49.39448547 C48.0936824 48.36325058 48.44580292 47.33201569 48.80859375 46.26953125 C49.1759816 45.20514328 49.54336945 44.14075531 49.92189026 43.04411316 C51.09780143 39.63495183 52.26786996 36.22382083 53.4375 32.8125 C54.60466115 29.41942162 55.77303682 26.02676595 56.94239807 22.63444519 C57.66962357 20.52357154 58.39539453 18.41219605 59.11949158 16.30024719 C59.45316238 15.32951767 59.78683319 14.35878815 60.13061523 13.35864258 C60.41992416 12.51497635 60.70923309 11.67131012 61.00730896 10.80207825 C62.2892074 7.18365158 63.65211238 3.59436699 65 0 C70.94 0 76.88 0 83 0 C81.10194161 6.48157618 79.05508281 12.85407842 76.734375 19.1953125 C76.42404327 20.04991562 76.11371155 20.90451874 75.79397583 21.78501892 C74.78268354 24.56625273 73.76681443 27.34578068 72.75 30.125 C72.22626801 31.55898636 72.22626801 31.55898636 71.69195557 33.02194214 C69.50004205 39.02202674 67.30046135 45.0192637 65.09655762 51.01495361 C64.02247572 53.93881665 62.95093983 56.86360197 61.87988281 59.78857422 C60.20607979 64.35605389 58.52225052 68.91972047 56.83068848 73.48065186 C56.20117565 75.18131747 55.57439626 76.88299776 54.95056152 78.58575439 C44.34713598 107.49406358 44.34713598 107.49406358 32.27734375 113.3125 C24.72836165 116.1769359 18.02189831 116.34877819 10 116 C10 110.39 10 104.78 10 99 C13.22265625 98.57682292 16.4453125 98.15364583 19.66796875 97.73046875 C24.09565821 96.75980295 26.85334348 95.44659214 29.6875 91.87109375 C30.120625 91.06800781 30.55375 90.26492188 31 89.4375 C31.45375 88.65246094 31.9075 87.86742187 32.375 87.05859375 C33.94622822 79.36939563 28.59669507 70.20675539 25.68359375 63.18359375 C25.27035355 62.17627197 24.85711334 61.1689502 24.43135071 60.13110352 C23.10421981 56.89817761 21.77084539 53.66786712 20.4375 50.4375 C19.07525631 47.12248139 17.71471998 43.80676568 16.3543396 40.49098206 C15.46359693 38.32006633 14.5723462 36.14935898 13.68057251 33.97886658 C10.32777259 25.81514039 7.01590513 17.63638048 3.75 9.4375 C3.35095459 8.43581787 2.95190918 7.43413574 2.54077148 6.40209961 C1.6922381 4.26870588 0.84578177 2.13448609 0 0 Z " fill="#133142" transform="translate(707,532)"/>
<path d="M0 0 C5.76972563 3.90432561 9.65240713 9.21545321 11.31541443 16.03617859 C11.81065648 19.05582072 11.88548615 21.88831589 11.87915039 24.94848633 C11.87903709 26.77981865 11.87903709 26.77981865 11.87892151 28.64814758 C11.87376022 29.95664169 11.86859894 31.2651358 11.86328125 32.61328125 C11.86141461 33.97376961 11.85999187 35.33425865 11.85899353 36.69474792 C11.85518775 40.26380287 11.84537414 43.83281669 11.83428955 47.40185547 C11.82403363 51.04849695 11.81948697 54.69514511 11.81445312 58.34179688 C11.80375003 65.48829962 11.78616904 72.63476778 11.765625 79.78125 C5.825625 79.78125 -0.114375 79.78125 -6.234375 79.78125 C-6.24895752 78.1820874 -6.26354004 76.5829248 -6.27856445 74.93530273 C-6.33664505 68.98813801 -6.41387836 63.04134802 -6.49682617 57.09448242 C-6.53002942 54.52325534 -6.55807558 51.95195618 -6.58081055 49.38061523 C-6.61444014 45.67921302 -6.6667627 41.9784686 -6.72265625 38.27734375 C-6.72904617 37.13228867 -6.7354361 35.98723358 -6.74201965 34.80747986 C-6.87718529 27.4285915 -7.22745196 21.78817304 -12.671875 16.34375 C-18.4806311 13.79604995 -24.69490516 13.40384866 -30.68359375 15.734375 C-34.82550697 18.15368106 -37.00833597 20.48415009 -39.234375 24.78125 C-39.69945002 27.50006943 -39.69945002 27.50006943 -39.66674805 30.39770508 C-39.68654221 31.49846878 -39.70633636 32.59923248 -39.72673035 33.73335266 C-39.73631523 35.49922981 -39.73631523 35.49922981 -39.74609375 37.30078125 C-39.76404495 38.51448898 -39.78199615 39.72819672 -39.80049133 40.97868347 C-39.85461801 44.85033711 -39.88849877 48.72186728 -39.921875 52.59375 C-39.95504586 55.22072031 -39.98953529 57.84767433 -40.02539062 60.47460938 C-40.11034639 66.91006721 -40.17714715 73.34548827 -40.234375 79.78125 C-46.504375 79.78125 -52.774375 79.78125 -59.234375 79.78125 C-59.234375 52.72125 -59.234375 25.66125 -59.234375 -2.21875 C-53.294375 -2.21875 -47.354375 -2.21875 -41.234375 -2.21875 C-40.904375 1.08125 -40.574375 4.38125 -40.234375 7.78125 C-39.244375 6.70875 -38.254375 5.63625 -37.234375 4.53125 C-26.94877549 -5.7752128 -12.65058483 -6.900319 0 0 Z " fill="#133141" transform="translate(525.234375,534.21875)"/>
<path d="M0 0 C6.30096079 4.01465105 10.43318388 9.97165791 12.99609375 16.90234375 C10.75302347 18.10484533 8.50321465 19.28925995 6.24609375 20.46484375 C5.29476562 20.97821289 5.29476562 20.97821289 4.32421875 21.50195312 C-0.35311129 23.91370143 -0.35311129 23.91370143 -3.2421875 23.86328125 C-5.56718201 22.59510242 -6.81181758 21.04605052 -8.44140625 18.96484375 C-11.85552499 14.93848852 -13.91198029 13.23515523 -19.25390625 12.66015625 C-25.38636918 12.34231518 -29.98424266 13.29446054 -35.00390625 16.90234375 C-41.59285174 23.34486823 -43.17510414 29.47935562 -43.37890625 38.40234375 C-43.20908482 45.83018548 -42.51530795 50.84793628 -37.69140625 56.71484375 C-31.88098108 61.44425958 -27.38574368 62.47171604 -19.9765625 62.2421875 C-15.64519542 61.7470115 -12.36434589 60.72728608 -9.00390625 57.90234375 C-6.98952048 55.3215659 -5.55545898 52.81150513 -4.00390625 49.90234375 C4.41109375 53.86234375 4.41109375 53.86234375 12.99609375 57.90234375 C11.51471304 65.30924731 6.74603476 70.2509943 0.609375 74.58984375 C-1.57036936 75.83329724 -3.68956351 76.93298553 -6.00390625 77.90234375 C-6.87144531 78.26585937 -7.73898437 78.629375 -8.6328125 79.00390625 C-18.28736915 81.57696306 -31.99863812 81.74091579 -41.0078125 77.1640625 C-41.66652344 76.74769531 -42.32523438 76.33132813 -43.00390625 75.90234375 C-43.71417969 75.45503906 -44.42445313 75.00773437 -45.15625 74.546875 C-55.0279035 67.69002815 -60.75336197 58.68689018 -63.00390625 46.90234375 C-64.4364053 33.85120933 -62.69770234 20.76267759 -54.75 9.9609375 C-40.70760365 -6.5946394 -19.0836791 -10.45324333 0 0 Z " fill="#132F3F" transform="translate(650.00390625,400.09765625)"/>
<path d="M0 0 C6.6 0 13.2 0 20 0 C20.70220043 27.52374891 21.09702817 55.03059884 21.0625 82.5625 C21.06164398 83.24998196 21.06078796 83.93746391 21.05990601 84.64577866 C21.04859369 93.09721305 21.02781331 101.54860392 21 110 C14.4 110 7.8 110 1 110 C0.67 73.7 0.34 37.4 0 0 Z " fill="#153142" transform="translate(428,504)"/>
<path d="M0 0 C0 5.94 0 11.88 0 18 C-2.97 18.3403125 -2.97 18.3403125 -6 18.6875 C-13.20408233 19.80185696 -18.46660508 21.64938092 -22.9375 27.5625 C-24.63079523 31.44711846 -25.13057867 34.81559335 -25.20532227 39.04394531 C-25.22526749 40.04468079 -25.24521271 41.04541626 -25.26576233 42.07647705 C-25.29083107 43.68604279 -25.29083107 43.68604279 -25.31640625 45.328125 C-25.33718735 46.43226746 -25.35796844 47.53640991 -25.37937927 48.67401123 C-25.44473646 52.19927783 -25.50369564 55.72461859 -25.5625 59.25 C-25.60569836 61.64063265 -25.64931307 64.03125782 -25.69335938 66.421875 C-25.80040376 72.2811741 -25.90171038 78.14054776 -26 84 C-31.94 84 -37.88 84 -44 84 C-44 56.94 -44 29.88 -44 2 C-38.06 2 -32.12 2 -26 2 C-25.67 5.3 -25.34 8.6 -25 12 C-24.01 10.9275 -23.02 9.855 -22 8.75 C-15.53497095 2.2718573 -9.04459191 0 0 0 Z " fill="#133040" transform="translate(844,530)"/>
<path d="M0 0 C7.26 0 14.52 0 22 0 C22 71.61 22 143.22 22 217 C14.41 217 6.82 217 -1 217 C-1 185.65 -1 154.3 -1 122 C-0.67 122 -0.34 122 0 122 C0 153.02 0 184.04 0 216 C6.6 216 13.2 216 20 216 C20 145.38 20 74.76 20 2 C13.73 2 7.46 2 1 2 C1 35 1 68 1 102 C0.67 102 0.34 102 0 102 C0 68.34 0 34.68 0 0 Z " fill="#242C33" transform="translate(322,412)"/>
<path d="M0 0 C0.40209138 7.2674293 0.48759358 14.03682547 -4.546875 19.7578125 C-9.72539895 24.50097381 -14.83405416 26.53142746 -21.9765625 26.3125 C-25.74545032 25.73043238 -27.92534879 24.29091658 -31 22 C-33.46588193 18.53235353 -34 16.63356341 -34 12.375 C-32.76626491 8.21114409 -31.70490803 7.20717925 -28 5 C-19.34246064 0.98042816 -9.51193759 -0.4424157 0 0 Z " fill="#FAFBFB" transform="translate(683,576)"/>
<path d="M0 0 C3.66507685 2.24902443 6.08142292 5.29399512 7.890625 9.16015625 C8.550625 12.46015625 9.210625 15.76015625 9.890625 19.16015625 C-3.639375 19.16015625 -17.169375 19.16015625 -31.109375 19.16015625 C-28.83778404 10.0737924 -26.42882126 5.53770861 -19.109375 0.16015625 C-13.11193056 -3.15422094 -6.16516637 -2.60927317 0 0 Z " fill="#FCFCFC" transform="translate(547.109375,411.83984375)"/>
<path d="M0 0 C0.32369527 6.62975875 0.55608067 12.14967374 -3 18 C-7.78265191 23.21743845 -12.38731305 25.67743867 -19.5 26.3125 C-24.11398644 25.90053692 -27.25580712 24.44346997 -30.8125 21.5 C-32.73027224 19.07755086 -33.04470249 16.703846 -33.5 13.6875 C-32.98330289 9.87685882 -32.80311906 9.25325356 -30.1875 6.75 C-21.93032374 0.49456344 -10.04024058 -0.25744207 0 0 Z " fill="#FBFBFB" transform="translate(899,576)"/>
<path d="M0 0 C0.57480781 13.156712 0.57480781 13.156712 -3 18 C-7.84258967 22.95020277 -11.91015677 25.75477435 -18.9375 26.3125 C-23.57566555 26.18998242 -27.02946044 24.63971905 -30.60546875 21.6640625 C-33.19966266 18.56846977 -33.30812438 14.91853828 -33 11 C-30.64897056 6.768147 -28.55663232 4.94684996 -24.0625 3.25 C-16.34239493 1.05723066 -8.02812997 -0.19617611 0 0 Z " fill="#FCFCFC" transform="translate(601,576)"/>
<path d="M0 0 C3.09682459 1.56478029 4.98176265 3.23280928 6.97265625 6.05859375 C8.25798484 9.99018709 8.76974409 13.21938813 8.03515625 17.30859375 C5.81430868 21.66803528 3.61439466 24.47689839 -0.96484375 26.30859375 C-5.70232332 27.01921569 -9.02305574 26.77948776 -13.33984375 24.62109375 C-17.40040621 21.04393158 -18.78883631 18.86751676 -19.40234375 13.43359375 C-19.20925654 8.79072414 -17.68274272 6.05488692 -14.96484375 2.30859375 C-10.58080112 -1.46655407 -5.35312966 -1.88370567 0 0 Z " fill="#FCFCFC" transform="translate(161.96484375,342.69140625)"/>
<path d="M0 0 C21.12 0 42.24 0 64 0 C64 5.94 64 11.88 64 18 C53.11 18 42.22 18 31 18 C31 50.34 31 82.68 31 116 C24.07 116 17.14 116 10 116 C10 83.33 10 50.66 10 17 C10.33 17 10.66 17 11 17 C11.84311864 49.33898164 12.13354808 81.6505448 12 114 C17.61 114 23.22 114 29 114 C28.99777939 112.7995253 28.99555878 111.5990506 28.99327087 110.36219788 C28.97304118 99.07522705 28.9580287 87.78825987 28.94818783 76.50127506 C28.94295856 70.69786387 28.93586013 64.89446725 28.92456055 59.09106445 C28.91373322 53.49549147 28.9077235 47.89993255 28.90512276 42.3043499 C28.90326823 40.16441056 28.89964709 38.02447204 28.89426994 35.88453865 C28.88706156 32.89835034 28.88600897 29.91222093 28.88647461 26.92602539 C28.88287933 26.03194977 28.87928406 25.13787415 28.87557983 24.21670532 C28.88594784 18.11405216 28.88594784 18.11405216 30 17 C32.44830426 16.91156207 34.86820599 16.88471248 37.31640625 16.90234375 C38.04746078 16.9037587 38.77851532 16.90517365 39.53172302 16.90663147 C41.87535632 16.91224592 44.21889539 16.92480078 46.5625 16.9375 C48.14778508 16.94251314 49.73307166 16.94707637 51.31835938 16.95117188 C55.21230543 16.96137079 59.10604677 16.98094313 63 17 C63 11.72 63 6.44 63 1 C42.21 1 21.42 1 0 1 C0 0.67 0 0.34 0 0 Z " fill="#071421" transform="translate(445,363)"/>
<path d="M0 0 C4.03167692 3.37535742 4.55451149 4.87578538 5.0625 10.125 C4.94985068 14.43785966 3.51367939 16.95279071 0.6875 20.25 C-2.72707004 22.84036348 -6.14532171 22.68108741 -10.3125 22.25 C-13.36607079 20.63679279 -15.55083566 19.21939098 -17.6875 16.5 C-19.13649408 11.28362133 -19.01303657 7.60103481 -16.5625 2.875 C-11.88015733 -2.58773311 -6.50678622 -3.43754744 0 0 Z " fill="#FCFCFC" transform="translate(250.3125,607.75)"/>
<path d="M0 0 C2.97239241 1.78476241 5.42604027 3.85208055 7 7 C7.53118173 10.79415519 7.85089348 14.46331178 5.953125 17.890625 C4.17889137 20.0405787 2.50728754 21.74635623 0 23 C-4.96134453 23.3744411 -8.11322241 23.23898133 -12 20 C-14.61525329 15.94184834 -15.70124748 12.80855413 -15 8 C-13.36564595 4.96477105 -11.944447 2.71647703 -9.1875 0.625 C-5.89024117 -0.31707395 -3.4187401 -0.41260656 0 0 Z " fill="#FAFBFB" transform="translate(337,345)"/>
<path d="M0 0 C0.33 0 0.66 0 1 0 C1 28.71 1 57.42 1 87 C6.61 87 12.22 87 18 87 C17.98952637 85.48124268 17.97905273 83.96248535 17.96826172 82.39770508 C17.93204761 76.76019653 17.90909425 71.12269825 17.89013672 65.48510742 C17.8800824 63.0456367 17.86643708 60.60617803 17.84912109 58.16674805 C17.82484818 54.65931221 17.81351109 51.15203579 17.8046875 47.64453125 C17.79436493 46.55477493 17.78404236 45.46501862 17.77340698 44.34223938 C17.77325592 43.32155869 17.77310486 42.30087799 17.77294922 41.24926758 C17.768508 40.35436111 17.76406677 39.45945465 17.75949097 38.53742981 C18.02649737 35.72044624 18.83539301 33.56584518 20 31 C21.03701461 34.11104384 21.08877082 36.13412808 21.02172852 39.3894043 C21.00163223 40.49031906 20.98153595 41.59123383 20.96083069 42.72550964 C20.92027809 44.50687065 20.92027809 44.50687065 20.87890625 46.32421875 C20.85529526 47.54075638 20.83168427 48.75729401 20.80735779 50.01069641 C20.73067585 53.90308164 20.64667058 57.79527019 20.5625 61.6875 C20.50928388 64.32355803 20.45654345 66.9596257 20.40429688 69.59570312 C20.27505445 76.06392705 20.13924311 82.53198395 20 89 C13.4 89 6.8 89 0 89 C0 59.63 0 30.26 0 0 Z " fill="#0B141D" transform="translate(674,390)"/>
<path d="M0 0 C0.66 0.99 1.32 1.98 2 3 C0.47005208 4.20442708 -1.05989583 5.40885417 -2.58984375 6.61328125 C-4.27155077 8.05683091 -4.27155077 8.05683091 -5 11 C-5.66 11 -6.32 11 -7 11 C-7.33 12.65 -7.66 14.3 -8 16 C-8.66 16 -9.32 16 -10 16 C-8.38920595 9.55682381 -4.63830054 4.63830054 0 0 Z " fill="#111C28" transform="translate(223,592)"/>
<path d="M0 0 C-0.5625 1.8125 -0.5625 1.8125 -2 4 C-4.31104818 5.05047644 -6.64583651 6.05007438 -9 7 C-10.88029239 8.53951047 -10.88029239 8.53951047 -12 10 C-12.66 9.67 -13.32 9.34 -14 9 C-12.89902432 7.87187697 -11.79408444 6.74762189 -10.6875 5.625 C-10.07261719 4.99851562 -9.45773437 4.37203125 -8.82421875 3.7265625 C-5.68593818 0.7562841 -4.42850886 0 0 0 Z " fill="#101F2B" transform="translate(610,400)"/>
<path d="M0 0 C3.28220895 1.64110448 3.74570789 4.69322988 5 8 C5 8.99 5 9.98 5 11 C5.99 11.33 6.98 11.66 8 12 C7.34 13.32 6.68 14.64 6 16 C4.9955866 13.7101766 3.99632388 11.4183401 3 9.125 C2.71382812 8.47402344 2.42765625 7.82304688 2.1328125 7.15234375 C0 2.2265625 0 2.2265625 0 0 Z " fill="#0B141C" transform="translate(724,572)"/>
<path d="M0 0 C0.99 0.33 1.98 0.66 3 1 C4.125 4.3125 4.125 4.3125 5 8 C5.309375 9.2065625 5.309375 9.2065625 5.625 10.4375 C5.74875 10.953125 5.8725 11.46875 6 12 C2.92307943 9.23077149 1.22199993 6.97149976 0 3 C0 2.01 0 1.02 0 0 Z " fill="#0C1720" transform="translate(589,452)"/>
<path d="M0 0 C0.33 0 0.66 0 1 0 C1 3.63 1 7.26 1 11 C-0.98 11 -2.96 11 -5 11 C-4.01 10.67 -3.02 10.34 -2 10 C-2 9.34 -2 8.68 -2 8 C-1.34 8 -0.68 8 0 8 C0 5.36 0 2.72 0 0 Z " fill="#183B4F" transform="translate(482,602)"/>
<path d="M0 0 C0 3.10551666 -0.5393715 4.35261084 -2 7 C-2.66 7 -3.32 7 -4 7 C-4.33 7.99 -4.66 8.98 -5 10 C-5.33 9.34 -5.66 8.68 -6 8 C-2.25 2.25 -2.25 2.25 0 0 Z " fill="#0B1620" transform="translate(558,573)"/>
<path d="M0 0 C0.66 0.33 1.32 0.66 2 1 C2 1.66 2 2.32 2 3 C-1.72430357 3.69289369 -5.21083746 4.11144596 -9 4 C-6.06195683 2.47657021 -3.13439441 1.07229283 0 0 Z " fill="#1D3B4E" transform="translate(257,644)"/>
</svg>
